<?xml version="1.0" encoding="iso-8859-1"?>
<!-- Generator: Adobe Illustrator 29.4.0, SVG Export Plug-In . SVG Version: 9.03 Build 0)  -->
<svg version="1.1" id="Layer_1" xmlns="http://www.w3.org/2000/svg" xmlns:xlink="http://www.w3.org/1999/xlink" x="0px" y="0px"
	 viewBox="0 0 990.42 259.66" style="enable-background:new 0 0 990.42 259.66;" xml:space="preserve">
<g>
	<path d="M385.23,198.46c-22.87,0-39.88-8.01-51.61-20.92C323.26,166.2,317,151.15,317,134.14c0-18.57,8.01-35.58,20.72-47.31
		c11.34-10.56,26.78-17.01,47.5-17.01h31.47c20.72,0,36.16,6.45,47.5,17.01c12.71,11.73,20.72,28.74,20.72,47.31
		s-8.21,39.1-24.83,50.43l23.85,26.39c1.56,1.56,2.74,3.52,3.52,5.08h-47.7c-0.59-0.98-1.56-2.35-15.05-17.98
		c-2.54,0.2-5.28,0.39-8.01,0.39h-31.47L385.23,198.46z M384.25,104.82c-11.34,0-18.38,3.13-23.65,8.21
		c-5.86,5.28-9.38,13.1-9.38,21.5c0,7.62,2.93,14.66,7.82,19.94c5.47,6.06,13.49,9.77,25.22,9.77h33.23
		c11.73,0,19.74-3.71,25.22-9.77c4.89-5.28,7.82-12.32,7.82-19.94c0-8.41-3.52-16.23-9.38-21.5c-5.28-5.08-12.31-8.21-23.65-8.21
		h-33.23H384.25z"/>
	<path d="M534.57,201.98h-35.38V78.05c0-5.47,2.93-8.21,8.8-8.21h93.83c16.22,0,26.58,4.89,33.82,12.51
		c6.45,6.84,10.56,16.03,10.56,26c0,10.56-3.13,20.53-12.51,27.37c8.8,5.28,12.71,12.32,12.71,27.37v26.39
		c0,5.67,0.2,8.8,0.59,12.51h-35.77c-0.39-2.93-0.59-5.86-0.59-8.8V166.8c0-8.41-4.1-11.73-14.47-11.73h-61.58v46.92L534.57,201.98z
		 M597.12,124.96c4.89,0,7.82-1.76,9.97-4.3c1.56-1.96,2.54-4.3,2.54-6.84c0-2.74-0.98-5.47-2.93-7.43
		c-1.95-2.15-5.08-3.52-9.58-3.52H537.5c-1.96,0-2.93,1.17-2.93,2.93v19.16L597.12,124.96L597.12,124.96z"/>
	<path d="M802.57,69.83v34.99H702.09c-2.15,0-3.13,1.17-3.13,3.32v15.05h103.02v25.41H698.96v16.03c0,2.35,0.98,3.52,3.13,3.52
		h100.48v33.82H682.15c-12.32,0-18.57-6.06-18.57-18.38V87.61c0-11.92,6.26-17.79,18.77-17.79h120.22L802.57,69.83z"/>
	<path d="M988.27,196.11c0.98,2.15,1.56,3.91,2.15,5.86h-39.88c-0.39-1.76-0.98-3.13-1.56-4.5l-7.04-16.03h-78.19l-6.84,15.83
		c-0.59,1.56-1.17,3.13-1.37,4.69h-40.86c0.59-1.96,1.17-3.71,2.15-5.86l47.31-104.78c7.43-16.42,19.35-24.44,38.31-24.44
		s30.69,8.02,38.12,24.44l47.7,104.78L988.27,196.11z M929.04,152.33l-20.33-47.31c-1.17-2.93-3.52-4.11-6.06-4.11
		c-2.35,0-4.5,0.98-5.87,4.11l-20.13,47.31H929.04z"/>
</g>
<path d="M213.01,105.84c6.29,6.29,9.91,15,9.91,23.85c0,8.74-2.97,16.61-8.58,22.75l-0.04,0.04l-0.04,0.04
	c-5.08,5.59-11.8,8.94-20.55,10.24l-3.44,0.51c-13.96,2.07-24.92,13.03-26.99,26.99l-0.51,3.44c-1.3,8.75-4.65,15.47-10.25,20.56
	l-0.04,0.04l-0.04,0.04c-6.14,5.61-14,8.58-22.72,8.58c-8.88,0-17.59-3.62-23.89-9.91c-0.31-0.31-0.62-0.63-0.92-0.95l-0.05-0.05
	l-0.05-0.05c-4.42-4.75-7.01-10.5-8.15-18.08l-0.52-3.43c-2.09-13.92-13.02-24.85-26.94-26.93l-3.43-0.51
	c-7.57-1.14-13.31-3.72-18.06-8.14l-0.05-0.05l-0.05-0.05c-0.32-0.3-0.64-0.6-0.95-0.91c-6.3-6.3-9.91-15-9.91-23.86
	c0-8.74,2.97-16.61,8.58-22.75l0.04-0.04l0.04-0.04c5.08-5.59,11.8-8.94,20.55-10.24l3.44-0.51c13.96-2.07,24.92-13.03,26.99-26.99
	l0.51-3.44c1.3-8.75,4.65-15.47,10.25-20.56l0.04-0.04l0.04-0.04c6.14-5.61,14-8.58,22.72-8.58c8.88,0,17.59,3.62,23.89,9.91
	c0.31,0.31,0.62,0.63,0.92,0.95l0.05,0.05l0.05,0.05c4.42,4.75,7.01,10.49,8.15,18.07l0.51,3.43c2.09,13.93,13.02,24.86,26.95,26.95
	l3.43,0.51c7.57,1.14,13.31,3.72,18.06,8.14l0.05,0.05l0.05,0.05C212.38,105.23,212.7,105.53,213.01,105.84L213.01,105.84
	L213.01,105.84 M238.99,79.85c-0.66-0.66-1.33-1.3-2.01-1.93c-6.27-5.83-13.67-10.52-22.39-13.73s-15.83-10.21-19.1-19.1
	s-7.9-16.13-13.73-22.4c-0.63-0.68-1.28-1.35-1.93-2.01C167.07,7.94,149.28,0,129.96,0c-18.63,0-35.09,6.85-47.52,18.2
	c-7.93,7.2-14.17,16.23-18.12,27.19c-3.17,8.79-10.16,15.77-18.94,18.94C34.42,68.28,25.4,74.52,18.2,82.44
	C6.86,94.85,0,111.32,0,129.96c0,19.33,7.93,37.11,20.68,49.86c0.66,0.66,1.33,1.3,2.01,1.93c6.27,5.83,13.67,10.52,22.39,13.73
	s15.83,10.21,19.1,19.1s7.9,16.13,13.73,22.4c0.63,0.68,1.28,1.35,1.93,2.01c12.74,12.74,30.53,20.67,49.86,20.68
	c18.63,0,35.09-6.85,47.52-18.2c7.93-7.2,14.17-16.23,18.12-27.19c3.17-8.79,10.16-15.77,18.94-18.94
	c10.96-3.95,19.98-10.19,27.18-18.11c11.34-12.41,18.19-28.88,18.2-47.52c0-19.33-7.93-37.11-20.68-49.86l0,0L238.99,79.85z"/>
</svg> 